<?xml version="1.0" encoding="UTF-8"?>
<svg id="Layer_1" data-name="Layer 1" xmlns="http://www.w3.org/2000/svg" viewBox="0 0 607.01 809.35">
  <defs>
    <style>
      .cls-1 {
        fill: #fff;
      }

      .cls-1, .cls-2 {
        stroke: #231f20;
        stroke-miterlimit: 10;
      }

      .cls-2 {
        fill: #231f20;
      }
    </style>
  </defs>
  <path class="cls-2" d="M143.71,138.71l16.09-91.45,55.88,82.29,1.99,3.53c-46.82,15.93-86.88,38.04-118.07,68.26,1.83-20.85,14.46-41.73,44.1-62.63Z"/>
  <path class="cls-2" d="M325.87,215.15c-30.14-30.02-69.16-45.14-111.36-54.93,34.96-15.03,71.59-17.54,110.66-1.91l.7,56.84Z"/>
  <path class="cls-2" d="M83.05,192.7c24.87,32.57,58.33,49.6,101.33,49.34,18.63,16.73,29.62,25.09,43.66,17.84,14.04-7.25,10.68-35.24,7.26-40.7s-22.15-12.96-36.14-13.27c5.39-4.36,8.57-9.28,26.71-10.42,20.23,2.55,39.02,7.45,46.1,31.44,5.56,12.76,9.39,37.07-.84,62.36-10.24,25.29-6.71,21.48-6.19,29.14,1.19,17.8,38.47,32.13,60.71,26.99l4.07,195.59c-7.39-38.44-14.66-76.9-37.16-111.86,0,0-29.1,16.81-48.8,15.61-19.7-1.2-25.7-4.52-38.25-12.25-12.55-7.73-20.69-20.36-24.99-33.52-4.31-13.16-11.35-26.88-7.42-44.92s6.72-28.42,12.24-36.6c5.52-8.18,5.5-4.35,5.5-4.35-60.39-18.18-98.84-56.06-107.8-120.41Z"/>
  <path class="cls-1" d="M204.51,317.56l12.03,2.25s-11.05,19.64-14.94,28.93-2.28,17.5,.95,27.37,5.95,13.72,13.57,21.42,7.07,8.8,16.36,11.04,19.16,.1,19.16,.1l14.24-2.11c10.41-2.13,12.62-5.4,12.62-5.4l5.41,11.52s-17.03,11.4-29.07,11.88-22.98-.67-33.9-6.75-14.74-7.2-23.42-20.93c-8.68-13.73-9.7-27.42-6.87-45.47,2.84-18.05,13.87-33.86,13.87-33.86Z"/>
  <path class="cls-2" d="M74.24,219.43c21.79,55.9,56.53,75.57,90.32,97.92-20.24,20.55-26.42,43.62-20.63,68.85-21.53,7.24-25.47,27.28-25.45,50.22-33.77-54.86-64.64-112.39-44.24-216.98Z"/>
  <path class="cls-2" d="M149.91,393.34l89.51,145.53c-39.73-15.71-78.27-36.86-110.64-86.53,1.61-24.93,6.83-46.35,21.12-59Z"/>
  <path class="cls-2" d="M237.33,480.22c14.78,40.21,29.96,81.71,44.26,119.79,14.3,38.09,30.99,34.9,42.61,42.39,0,0-13.03-18.73-13.58-44.99-.55-26.26,5.82-53.18,1.12-78.08-4.7-24.9-27.37-49.9-27.37-49.9l-47.05,10.8Z"/>
  <path class="cls-2" d="M103.49,439.41c-1.39,43.3,15.75,79.4,48.47,109.45,46.47,43.38,87.94,65.69,126.73,76.71l-19.05-55.39c-102.32-46.29-127.73-88.45-156.15-130.77Z"/>
  <g>
    <path class="cls-2" d="M507.52,137.04l-17.3-91.23-54.79,83.02-1.95,3.56c47.02,15.31,87.38,36.88,118.96,66.69-2.1-20.83-15.01-41.53-44.93-62.04Z"/>
    <path class="cls-2" d="M326.39,215.89c29.74-30.42,68.56-46.05,110.62-56.4-35.15-14.57-71.82-16.59-110.68-.44l.06,56.84Z"/>
    <path class="cls-2" d="M568.88,190.22c-24.44,32.9-57.66,50.37-100.67,50.68-18.4,16.98-29.29,25.48-43.42,18.42-14.13-7.06-11.14-35.09-7.8-40.6,3.34-5.51,21.97-13.25,35.96-13.75-5.44-4.29-8.69-9.17-26.85-10.06-20.19,2.82-38.92,7.96-45.68,32.04-5.39,12.83-8.9,37.19,1.67,62.35s6.99,21.39,6.58,29.05c-.95,17.81-38.05,32.64-60.35,27.79l-1.48,195.63c6.88-38.53,13.64-77.09,35.67-112.34,0,0,29.32,16.42,49,14.96,19.68-1.46,25.64-4.86,38.08-12.76s20.42-20.64,24.55-33.85,10.99-27.03,6.82-45.02-7.1-28.33-12.72-36.44c-5.63-8.11-5.55-4.28-5.55-4.28,60.14-18.98,98.09-57.36,106.19-121.83Z"/>
    <path class="cls-1" d="M449.09,316.68l-12,2.41s11.31,19.5,15.32,28.73,2.52,17.47-.58,27.38c-3.1,9.91-5.76,13.79-13.28,21.6s-6.95,8.89-16.21,11.25c-9.26,2.36-19.15,.36-19.15,.36l-14.27-1.92c-10.44-1.99-12.69-5.24-12.69-5.24l-5.26,11.59s17.18,11.17,29.23,11.5c12.05,.32,22.97-.98,33.8-7.2,10.83-6.22,14.64-7.39,23.14-21.23,8.5-13.84,9.34-27.55,6.26-45.55-3.07-18.01-14.32-33.67-14.32-33.67Z"/>
    <path class="cls-2" d="M578.05,216.83c-21.05,56.18-55.53,76.32-89.02,99.1,20.51,20.28,27,43.27,21.54,68.57,21.63,6.95,25.83,26.94,26.11,49.87,33.04-55.3,63.14-113.24,41.37-217.55Z"/>
    <path class="cls-2" d="M504.68,391.73l-87.58,146.7c39.51-16.24,77.78-37.9,109.48-87.99-1.94-24.91-7.44-46.26-21.9-58.71Z"/>
    <path class="cls-2" d="M418.42,479.76c-14.25,40.4-28.88,82.1-42.67,120.37-13.8,38.27-30.52,35.31-42.05,42.95,0,0,12.78-18.9,12.98-45.17,.2-26.27-6.52-53.1-2.15-78.06,4.37-24.96,26.71-50.26,26.71-50.26l47.19,10.18Z"/>
    <path class="cls-2" d="M551.71,437.18c1.97,43.28-14.7,79.6-47.01,110.08-45.89,43.99-87.06,66.85-125.71,78.38l18.31-55.64c101.7-47.64,126.54-90.13,154.41-132.83Z"/>
  </g>
</svg>