<?xml version="1.0" encoding="UTF-8"?>
<svg id="Layer_1" data-name="Layer 1" xmlns="http://www.w3.org/2000/svg" viewBox="0 0 1273.38 597.85">
  <defs>
    <style>
      .cls-1 {
        stroke-width: 1.65px;
      }

      .cls-1, .cls-2, .cls-3, .cls-4, .cls-5, .cls-6, .cls-7, .cls-8, .cls-9, .cls-10, .cls-11, .cls-12, .cls-13, .cls-14, .cls-15, .cls-16, .cls-17, .cls-18 {
        stroke: #231f20;
        stroke-miterlimit: 10;
      }

      .cls-1, .cls-4, .cls-17, .cls-18 {
        fill: none;
      }

      .cls-2 {
        stroke-width: 1.24px;
      }

      .cls-2, .cls-11, .cls-15 {
        fill: #a97c50;
      }

      .cls-19, .cls-3 {
        fill: #f27c79;
      }

      .cls-20 {
        fill: #eab1b0;
      }

      .cls-21 {
        fill: #edabab;
      }

      .cls-22 {
        fill: #ef4136;
      }

      .cls-23 {
        fill: #a8302c;
      }

      .cls-24 {
        fill: #895a59;
      }

      .cls-3, .cls-4 {
        stroke-width: 1.01px;
      }

      .cls-5 {
        fill: #c49a6c;
      }

      .cls-6, .cls-9, .cls-14 {
        fill: #8b5e3c;
      }

      .cls-7, .cls-12 {
        fill: #754c29;
      }

      .cls-8, .cls-13, .cls-16 {
        fill: #603913;
      }

      .cls-9, .cls-10, .cls-11, .cls-12, .cls-13, .cls-17 {
        stroke-width: 1.32px;
      }

      .cls-10 {
        fill: #594a42;
      }

      .cls-14, .cls-15, .cls-16 {
        stroke-width: 1.17px;
      }

      .cls-18 {
        stroke-width: .96px;
      }
    </style>
  </defs>
  <polygon class="cls-22" points="448.2 271.71 315.49 271.71 305.19 159.6 459.64 159.6 448.2 271.71"/>
  <rect class="cls-22" x="314.35" y="299.12" width="145.29" height="227.9" rx="13.22" ry="13.22"/>
  <rect class="cls-4" x="334.37" y="348.36" width="105.25" height="173.89" rx="20.07" ry="20.07"/>
  <rect class="cls-20" x="344.09" y="391.84" width="18.3" height="26.31"/>
  <rect class="cls-23" x="362.39" y="391.84" width="18.3" height="26.31"/>
  <rect class="cls-20" x="381.56" y="391.84" width="18.3" height="26.31"/>
  <rect class="cls-23" x="399.8" y="391.84" width="18.3" height="26.31"/>
  <path class="cls-24" d="M394.37,382.21c0-9.31,7.55-22.73,16.86-22.73s16.86,13.41,16.86,22.73h-33.72Z"/>
  <rect class="cls-3" x="341.27" y="271.71" width="80.53" height="6.85"/>
  <rect class="cls-3" x="341.27" y="278.57" width="80.53" height="6.85"/>
  <rect class="cls-3" x="341.27" y="285.42" width="80.53" height="6.85"/>
  <rect class="cls-3" x="341.27" y="292.27" width="80.53" height="6.85"/>
  <rect class="cls-22" x="254.87" y="299.12" width="42.71" height="71.72"/>
  <rect class="cls-22" x="472.84" y="295.7" width="43.6" height="75.15"/>
  <rect class="cls-21" x="269.99" y="370.84" width="20.46" height="184.14"/>
  <rect class="cls-19" x="485.3" y="370.84" width="23.13" height="165.45"/>
  <rect class="cls-4" x="297.57" y="321.51" width="7.62" height="37.97"/>
  <rect class="cls-3" x="305.96" y="321.51" width="7.62" height="37.97"/>
  <rect class="cls-3" x="466.34" y="318.9" width="6.51" height="38.14"/>
  <rect class="cls-3" x="298.97" y="321.51" width="7.62" height="37.97"/>
  <rect class="cls-3" x="459.35" y="318.9" width="6.51" height="38.14"/>
  <rect class="cls-20" x="334.37" y="318.9" width="19.07" height="19.07"/>
  <rect class="cls-20" x="367.59" y="318.9" width="19.41" height="19.41"/>
  <rect class="cls-23" x="347.73" y="359.48" width="37.1" height="22.73"/>
  <rect class="cls-20" x="351.39" y="453.57" width="74.19" height="35.14"/>
  <circle class="cls-24" cx="362.39" cy="435.31" r="10.08"/>
  <circle class="cls-24" cx="390.71" cy="435.31" r="10.08"/>
  <circle class="cls-24" cx="419.02" cy="435.31" r="10.08"/>
  <circle class="cls-24" cx="429.1" cy="329.3" r="10.08"/>
  <circle class="cls-18" cx="357.79" cy="215.66" r="32.92"/>
  <ellipse class="cls-18" cx="416.28" cy="218.84" rx="19.81" ry="23.25"/>
  <path class="cls-4" d="M338.18,242.09c-9.81-16.24-4.6-37.36,11.64-47.17,12.99-7.85,29.89-3.68,37.74,9.31,6.28,10.39,2.94,23.91-7.45,30.19-8.32,5.02-19.13,2.35-24.15-5.96-4.02-6.65-1.88-15.3,4.77-19.32,5.32-3.21,12.24-1.51,15.46,3.82,2.57,4.26,1.21,9.79-3.05,12.37-3.41,2.06-7.84,.96-9.89-2.44-1.65-2.72-.77-6.27,1.95-7.91,2.18-1.32,5.01-.62,6.33,1.56"/>
  <path class="cls-4" d="M396.47,210.96c9.52-6.89,22.83-4.76,29.72,4.76,5.51,7.62,3.81,18.26-3.81,23.78-6.09,4.41-14.61,3.05-19.02-3.05-3.53-4.88-2.44-11.69,2.44-15.22,3.9-2.82,9.35-1.95,12.17,1.95,2.26,3.12,1.56,7.48-1.56,9.74-2.5,1.81-5.98,1.25-7.79-1.25-1.45-2-1-4.79,1-6.23,1.6-1.16,3.83-.8,4.99,.8,.93,1.28,.64,3.06-.64,3.99"/>
  <polygon class="cls-5" points="876.31 530.44 737.85 530.44 737.85 308.15 869.55 299.38 876.31 530.44"/>
  <circle class="cls-5" cx="796.09" cy="181.58" r="92.56"/>
  <rect class="cls-7" x="691.38" y="96.7" width="12.45" height="92.3"/>
  <rect class="cls-6" x="888.11" y="89.02" width="12.39" height="92.56"/>
  <rect class="cls-5" x="676.66" y="311.25" width="41.05" height="66.61"/>
  <rect class="cls-5" x="894.31" y="295.05" width="41.83" height="66.54"/>
  <rect class="cls-6" x="691.38" y="377.86" width="16.27" height="9.29"/>
  <rect class="cls-8" x="691.38" y="387.15" width="16.27" height="9.29"/>
  <rect class="cls-6" x="691.38" y="396.44" width="16.27" height="9.29"/>
  <rect class="cls-8" x="691.38" y="405.74" width="16.27" height="9.29"/>
  <rect class="cls-6" x="691.38" y="415.03" width="16.27" height="9.29"/>
  <rect class="cls-8" x="691.38" y="424.33" width="16.27" height="9.29"/>
  <rect class="cls-6" x="691.38" y="433.62" width="16.27" height="9.29"/>
  <rect class="cls-8" x="691.38" y="442.92" width="16.27" height="9.29"/>
  <rect class="cls-6" x="691.38" y="452.21" width="16.27" height="9.29"/>
  <rect class="cls-8" x="691.38" y="461.51" width="16.27" height="9.29"/>
  <rect class="cls-6" x="691.38" y="470.8" width="16.27" height="9.29"/>
  <rect class="cls-8" x="691.38" y="480.09" width="16.27" height="9.29"/>
  <rect class="cls-6" x="691.38" y="489.39" width="16.27" height="9.29"/>
  <rect class="cls-8" x="691.38" y="498.68" width="16.27" height="9.29"/>
  <rect class="cls-6" x="691.38" y="507.98" width="16.27" height="9.29"/>
  <rect class="cls-8" x="691.38" y="517.27" width="16.27" height="9.29"/>
  <rect class="cls-6" x="691.38" y="526.57" width="16.27" height="9.29"/>
  <rect class="cls-8" x="691.38" y="535.86" width="16.27" height="9.29"/>
  <rect class="cls-6" x="691.38" y="545.16" width="16.27" height="9.29"/>
  <rect class="cls-6" x="908.25" y="361.59" width="17.04" height="10.07"/>
  <rect class="cls-8" x="908.25" y="372.82" width="17.04" height="10.07"/>
  <rect class="cls-6" x="908.25" y="384.05" width="17.04" height="10.07"/>
  <rect class="cls-8" x="908.25" y="395.28" width="17.04" height="10.07"/>
  <rect class="cls-6" x="908.25" y="406.51" width="17.04" height="10.07"/>
  <rect class="cls-8" x="908.25" y="417.74" width="17.04" height="10.07"/>
  <rect class="cls-6" x="908.25" y="428.98" width="17.04" height="10.07"/>
  <rect class="cls-8" x="908.25" y="440.21" width="17.04" height="10.07"/>
  <rect class="cls-6" x="908.25" y="451.44" width="17.04" height="10.07"/>
  <rect class="cls-8" x="908.25" y="462.67" width="17.04" height="10.07"/>
  <rect class="cls-6" x="908.25" y="473.9" width="17.04" height="10.07"/>
  <rect class="cls-8" x="908.25" y="485.13" width="17.04" height="10.07"/>
  <rect class="cls-6" x="908.25" y="496.36" width="17.04" height="10.07"/>
  <rect class="cls-8" x="908.25" y="507.59" width="17.04" height="10.07"/>
  <rect class="cls-6" x="908.25" y="518.82" width="17.04" height="10.07"/>
  <rect class="cls-7" x="717.71" y="320.54" width="20.14" height="41.05"/>
  <rect class="cls-6" x="869.9" y="311.25" width="24.4" height="40.28"/>
  <polygon class="cls-15" points="835.47 300.71 768.83 306.54 768.83 296.96 835.47 296.96 835.47 300.71"/>
  <rect class="cls-16" x="768.83" y="289.68" width="66.64" height="7.28"/>
  <rect class="cls-14" x="768.83" y="281.91" width="66.64" height="7.28"/>
  <rect class="cls-16" x="768.83" y="274.63" width="66.64" height="7.28"/>
  <ellipse class="cls-15" cx="696" cy="81.63" rx="11.64" ry="15.07"/>
  <ellipse class="cls-2" cx="895.18" cy="72.38" rx="13.07" ry="16.64"/>
  <ellipse class="cls-17" cx="768.57" cy="184.03" rx="33.58" ry="41.18"/>
  <ellipse class="cls-17" cx="825.95" cy="202.44" rx="23.8" ry="27.59"/>
  <ellipse class="cls-13" cx="838.74" cy="341.07" rx="19.31" ry="16.55"/>
  <circle class="cls-9" cx="838.74" cy="396.44" r="18.53"/>
  <circle class="cls-9" cx="838.74" cy="440.21" r="18.53"/>
  <polygon class="cls-11" points="796.67 363.28 782.36 359.53 769.27 366.42 768.41 351.65 757.81 341.33 771.59 335.95 778.13 322.68 787.51 334.13 802.15 336.24 794.16 348.7 796.67 363.28"/>
  <rect class="cls-12" x="747.82" y="442.92" width="59.26" height="27.88"/>
  <rect class="cls-17" x="814.72" y="371.66" width="51.73" height="99.14" rx="18" ry="18"/>
  <rect class="cls-11" x="754.71" y="377.86" width="23.24" height="23.24"/>
  <rect class="cls-11" x="782.97" y="375.95" width="22.4" height="22.4"/>
  <line class="cls-17" x1="754.75" y1="407.11" x2="807.33" y2="403.59"/>
  <line class="cls-17" x1="781.04" y1="433.62" x2="754.75" y2="407.11"/>
  <line class="cls-10" x1="807.29" y1="403" x2="781.04" y2="433.62"/>
  <path class="cls-1" d="M738.31,164.57c18.89-11.57,44.82-7.41,57.91,9.29,10.47,13.36,6.71,31.69-8.41,40.95-12.09,7.4-28.68,4.74-37.06-5.94-6.7-8.55-4.29-20.28,5.38-26.2,7.74-4.74,18.36-3.04,23.72,3.8,4.29,5.47,2.75,12.98-3.44,16.77-4.95,3.03-11.75,1.94-15.18-2.43-2.75-3.5-1.76-8.31,2.2-10.73,3.17-1.94,7.52-1.24,9.72,1.56,1.76,2.24,1.13,5.32-1.41,6.87"/>
  <path class="cls-17" d="M845.66,218.18c-11.15,8.38-26.99,6.13-35.37-5.02-6.7-8.92-4.91-21.59,4.02-28.3,7.14-5.36,17.27-3.93,22.64,3.21,4.29,5.71,3.14,13.82-2.57,18.11-4.57,3.43-11.05,2.51-14.49-2.06-2.75-3.65-2.01-8.84,1.64-11.59,2.92-2.2,7.08-1.61,9.27,1.32,1.76,2.34,1.29,5.66-1.05,7.42-1.87,1.41-4.53,1.03-5.93-.84-1.12-1.5-.82-3.62,.67-4.75"/>
</svg>